PathFileType	4	(X/Y/Z)	Patient4_TMGait_0pt6_02_left_09.trc.trc
DataRate	CameraRate	NumFrames	NumMarkers	Units	OrigDataRate	OrigDataStartFrame	OrigNumFrames
78.651685393258	78.651685393258	6	33	mm	78.651685393258	1	       141
Frame#	Time	Sacral			L.Shoulder			Chest			R.Shoulder			Neck			R.ASIS			L.ASIS			R.Thigh.Superior			R.Thigh.Lateral			R.Thigh.Inferior			R.Patella			L.Thigh.Superior			L.Thigh.Lateral			L.Thigh.Inferior			L.Patella			L.Shank.Superior			L.Shank.Lateral			L.Shank.Inferior			R.Shank.Superior			R.Shank.Lateral			R.Shank.Inferior			R.Heel			R.Midfoot.Superior			R.Midfoot.Lateral			R.Toe			L.Heel			L.Midfoot.Lateral			L.Midfoot.Superior			L.Toe			L.Elbow			L.Wrist			R.Elbow			R.Wrist			
		X1	Y1	Z1	X2	Y2	Z2	X3	Y3	Z3	X4	Y4	Z4	X5	Y5	Z5	X6	Y6	Z6	X7	Y7	Z7	X8	Y8	Z8	X9	Y9	Z9	X10	Y10	Z10	X11	Y11	Z11	X12	Y12	Z12	X13	Y13	Z13	X14	Y14	Z14	X15	Y15	Z15	X16	Y16	Z16	X17	Y17	Z17	X18	Y18	Z18	X19	Y19	Z19	X20	Y20	Z20	X21	Y21	Z21	X22	Y22	Z22	X23	Y23	Z23	X24	Y24	Z24	X25	Y25	Z25	X26	Y26	Z26	X27	Y27	Z27	X28	Y28	Z28	X29	Y29	Z29	X30	Y30	Z30	X31	Y31	Z31	X32	Y32	Z32	X33	Y33	Z33	

1	10.950000000000	778.589358442103	1013.789772568002	503.077424219753	936.207929629510	1443.587271506046	317.553355995975	1055.806064448743	1374.207135421904	466.013479598459	988.956115370401	1443.547345238687	647.970321577087	933.339534618882	1500.323397885577	473.239431481465	1009.173584476521	945.917432229832	606.320848247778	981.503563989033	970.222135344427	334.370367922897	1034.169475675466	740.281712899368	574.384950316342	944.486432204448	634.544407887224	630.051140963188	1018.294697035876	580.359489127447	549.914556624932	1013.057621101134	494.611111446913	552.587510741336	1070.355126986321	794.917488053875	359.055193804047	1031.081723803055	667.641732465754	277.128114776191	1140.008735891718	609.899212197216	332.722940469225	1159.593342606338	522.537734574897	322.256652745167	1102.770402028957	448.905202386867	318.144329968914	968.164688050080	383.401368806267	274.778987573829	980.617823980212	253.271279923914	329.160725582443	986.646060855668	406.839607782098	553.913229345603	913.658078722015	299.338133522954	606.601026450202	961.662815232487	208.571663174703	539.774042530599	831.053228218376	42.918792845590	494.619137462345	1002.252000027974	96.925011793533	535.287527513843	912.590710482320	36.733087093927	571.103016673688	1121.003017000706	42.774152975874	565.946583326096	805.835196494566	154.151722276739	374.698909053880	866.549660402812	122.358732927150	289.988084209978	969.843648989873	148.519919709466	306.978199005928	1064.997517778781	53.094186062909	270.809425431059	884.029560108960	1086.376398765147	218.541754256503	943.904732794595	832.666724815507	207.056226134900	1035.881465986282	1097.055865741032	770.693383392633	1238.284638004568	936.753798816686	735.719887104354	
2	10.962714285714	777.005588992497	1014.022061816785	504.223425532870	934.942877089146	1443.773798167894	319.231787611167	1055.009930962905	1373.817565537618	467.023507178438	989.203365438223	1442.994875765351	649.387803711121	932.859792554712	1500.174629104897	475.039758108349	1007.558230582289	945.693661352016	606.880525247887	979.629804685198	970.071135977928	335.016933835275	1030.627997512274	739.745055993290	574.863125327265	940.128273916937	634.531325657753	630.830177412593	1013.160386404527	579.799311814261	550.558709166429	1007.035996234307	494.245263182331	553.279115752367	1068.369925955304	795.436496011966	359.984862427466	1030.258990391894	668.069498917494	277.563365886543	1138.583833636989	610.690755562584	334.262363377709	1159.563226555219	525.202223691078	323.362791466085	1106.682944459363	450.903721910673	318.411149812755	977.452683267310	377.467456973109	274.874407565850	999.031595830520	248.735514138966	328.086360272171	980.211153608846	406.608963953765	554.396204430165	906.704245674869	299.420594324332	607.009263839254	954.189613154202	208.480327833143	540.070146401924	823.057331874515	43.098565337101	494.664753394430	994.318850317417	96.946829207158	535.482620858720	904.545511275333	36.722247855396	571.122151522245	1112.928750792966	42.533937161917	566.022666895536	833.023768298333	138.358656441550	373.522069189479	894.866194909676	111.390091775803	288.486688051453	995.462379315860	144.239487543298	305.381046657923	1096.009791140821	56.323276200005	268.500125999931	876.236345919395	1087.924352012732	219.979508744819	924.852531285772	833.004096485756	208.553969724266	1044.779945245704	1098.281284664339	770.896932450195	1254.661795783775	952.305474846168	731.797275587504	
3	10.975428571429	775.438191198338	1014.227827268610	505.317663075401	933.723148711071	1443.952780967951	320.882020010451	1054.229235968489	1373.402976750853	468.019920144156	989.429669695622	1442.410523369817	650.784819326277	932.393924584530	1500.004596461736	476.815980889418	1005.961062161050	945.468470939394	607.420128364945	977.783986587740	969.888108229514	335.618198881555	1027.162696534618	739.200616541038	575.372347721078	935.824156853694	634.504068825425	631.586402147477	1008.103172544800	579.232871836903	551.203166920839	1001.099743652953	493.867407144380	553.947656968704	1066.290423482523	795.797334891264	360.876265531845	1029.237765175308	668.349642632464	277.987360158953	1136.949380727175	611.297815026845	335.797741813455	1159.308581503078	527.711419416674	324.518898415857	1110.388963846718	452.829001948916	318.739595399806	986.706161571758	371.578158467476	274.900502331718	1017.268130032002	244.396866962156	327.071367654045	973.862863601971	406.370960144150	554.862832648861	899.832357174830	299.494210049559	607.402152949445	946.796517816237	208.379396413776	540.351694642042	815.122282472697	43.272328546924	494.712191980593	986.446264934693	96.963488860206	535.667134826068	896.566924669131	36.712134339376	571.142432223192	1104.920574990634	42.296461231213	566.097598165996	860.128532505307	122.953900377579	372.258676739402	923.121966631559	100.810520344680	286.983016630916	1020.900798409609	140.264337044350	303.882882710102	1126.734207259493	59.912912462594	266.445059660355	868.511997416231	1089.512351639226	221.345798826883	906.156427291107	833.465874228203	210.066872272623	1053.521182921773	1099.483667289571	771.025846330139	1270.637418425434	967.827857331611	727.867499043007	
4	10.988142857143	773.903062612064	1014.389138218525	506.309956114205	932.586374649047	1444.121652052363	322.472216461223	1053.475496713117	1372.947652816967	468.984833215047	989.613628979225	1441.772367902032	652.134934752995	931.951522334001	1499.799800406609	478.538087983004	1004.400719971398	945.240664370695	607.911681889143	975.989610498663	969.652325057464	336.128930042840	1023.829525920946	738.643581636850	575.915069540705	931.614677289515	634.456816844834	632.290209157183	1003.176519700285	578.658718936420	551.833121469877	995.309029992718	493.470304959111	554.563912311486	1064.044251731010	795.872420968406	361.680430011487	1027.833435208800	668.354400686026	278.395978139499	1134.931318099827	611.563476867599	337.296158962138	1158.631194010342	529.930260073470	325.744876257499	1113.682302340940	454.619218303984	319.171204447409	995.827625315278	365.806946319412	274.839291087831	1035.088337546220	240.464830270830	326.185339788771	967.655663993508	406.119234605535	555.290266682057	893.095157134823	299.559842927291	607.765182891251	939.532561681425	208.266972516823	540.607079812189	807.280151077841	43.441741548442	494.765251195700	978.666270944805	96.971070231251	535.834047574568	888.690833845101	36.703554483271	571.164106123046	1097.016116469001	42.063423100553	566.170136096046	886.959343713628	108.378870482669	370.915736719831	951.122328034743	91.014402128260	285.537703604677	1045.887742744316	136.886484129807	302.588868429359	1156.771958914495	64.148326771031	264.857159257852	860.930888654423	1091.179882699047	222.579242303616	888.160398387871	834.165657563421	211.600329414096	1061.937452400206	1100.643517134476	771.001985058373	1285.778849604662	983.285160125382	723.922647019910	
5	11.000857142857	772.411431909049	1014.494337046719	507.161286245040	931.558072305864	1444.280447440702	323.977568294564	1052.755387520330	1372.442600289231	469.903887322619	989.736825205863	1441.065746013907	653.416885340369	931.537827643145	1499.552395880216	480.181480881010	1002.890555669688	945.007925523408	608.328981484237	974.261159935626	969.351466852998	336.513955509054	1020.659848910085	738.070913897712	576.481065588519	927.520929316124	634.388806645725	632.915264379287	998.407249355571	578.076315767472	552.430221931228	989.693438705259	493.049900419679	555.101357837115	1061.574865731011	795.566772177444	362.353356077730	1025.894283453519	667.987749570869	278.780996075014	1132.398056264068	611.370837615510	338.713011519730	1157.372617760897	531.757966099629	327.047951228365	1116.399056411373	456.232518816058	319.733784693929	1004.730896675880	360.226014006657	274.692114970395	1052.294016868203	237.121404444376	325.492857305538	961.613236530688	405.852663334604	555.659701259571	886.513169013581	299.622535353690	608.086745915722	932.412980402824	208.144256324951	540.827561207421	799.534442873901	43.610778177050	494.827488017102	970.983046690179	96.967946919570	535.979996658364	880.922310925344	36.697253135039	571.186199529116	1089.222450907814	41.835261195755	566.239217263957	913.349978115013	95.017522779302	369.531981828601	978.696599479739	82.327893524894	284.230560212405	1070.199500260738	134.346006344674	301.596894859115	1185.793396862473	69.244682206336	263.925305230346	853.546700398821	1092.962571316741	223.637716486879	871.114727393445	835.189965592381	213.157460229342	1069.899609163745	1101.747652678250	770.756988634911	1299.739659203415	998.667421462982	719.950402652640	
6	11.013571428571	770.971528837620	1014.539739505238	507.846248475065	930.650069390641	1444.431750898922	325.379597354231	1052.070885419098	1371.888074447291	470.765534634924	989.785447950777	1440.286894178520	654.613687028495	931.153422845845	1499.261904050330	481.726070936848	1001.439868060916	944.767634976156	608.648870613939	972.605608914896	968.984175135621	336.751257137151	1017.661525735908	737.482840987713	577.045441155267	923.549043030949	634.305030446596	633.439620678288	993.799271162065	577.487714262807	552.972297844866	984.257416619126	492.606697310336	555.537726051092	1058.855207847480	794.831966513978	362.859163881005	1023.324904849759	667.198455621574	279.132231126980	1129.283822372300	610.658733643179	339.993577207569	1155.437049002143	533.136667983281	328.417147592021	1118.430308489753	457.648486414260	320.435332564425	1013.325234857161	354.909563782474	274.485723265734	1068.710256975331	234.504466636631	325.047546289938	955.734788707760	405.575986579917	555.957552291934	880.082632050276	299.691404353333	608.359021099885	925.428635852222	208.016343267288	541.008390104512	791.871236311247	43.785995431296	494.902261404877	963.383966542819	96.954880378345	536.105475900241	873.247147751292	36.694067113775	571.206792500220	1081.527270330295	41.611356991882	566.303953407098	939.114602719537	83.178387733940	368.185227592899	1005.648682697978	74.984740187637	283.158646143473	1093.627847954793	132.803114184271	300.987042990022	1213.507178034758	75.301462303361	263.785404083671	846.400724318031	1094.884486919641	224.501416332472	855.180198549947	836.586125294053	214.734456387658	1077.314592987008	1102.788700348055	770.240556414141	1312.268862389612	1013.960991889729	715.943645014538	
